<?xml version="1.0" encoding="utf-8"?>
<!-- Generator: Adobe Illustrator 27.5.0, SVG Export Plug-In . SVG Version: 6.00 Build 0)  -->
<svg version="1.1" id="Layer_1" xmlns="http://www.w3.org/2000/svg" xmlns:xlink="http://www.w3.org/1999/xlink" x="0px" y="0px"
	 viewBox="0 0 7000 4000" style="enable-background:new 0 0 7000 4000;" xml:space="preserve">
<g>
	<defs>
		<rect id="SVGID_1_" x="1.659" y="1.662" width="6997.09" height="3998.338"/>
	</defs>
	<clipPath id="SVGID_00000011716326913777778610000012338339723540016537_">
		<use xlink:href="#SVGID_1_"  style="overflow:visible;"/>
	</clipPath>
	
		<linearGradient id="SVGID_00000149370654554879767280000012816890998002136497_" gradientUnits="userSpaceOnUse" x1="18388.0234" y1="13966.3271" x2="3448.5295" y2="1959.2996">
		<stop  offset="0" style="stop-color:#9C00FF"/>
		<stop  offset="1" style="stop-color:#01011F"/>
	</linearGradient>
	
		<rect x="1.659" y="1.662" style="clip-path:url(#SVGID_00000011716326913777778610000012338339723540016537_);fill:url(#SVGID_00000149370654554879767280000012816890998002136497_);" width="6997.09" height="3998.338"/>
</g>
<g>
	<defs>
		<path id="SVGID_00000006700140620280316120000007729262407160057003_" d="M2081.583,1.662H1.659v1806.168h1958.096
			c67.006,0,121.828-54.821,121.828-121.828V1.662z"/>
	</defs>
	<clipPath id="SVGID_00000049914909591663916900000008724128688364081565_">
		<use xlink:href="#SVGID_00000006700140620280316120000007729262407160057003_"  style="overflow:visible;"/>
	</clipPath>
	
		<linearGradient id="SVGID_00000072265805237573479200000005443957738537055405_" gradientUnits="userSpaceOnUse" x1="5595.4307" y1="3569.4041" x2="435.151" y2="549.8708">
		<stop  offset="0" style="stop-color:#9C00FF"/>
		<stop  offset="1" style="stop-color:#01011F"/>
	</linearGradient>
	
		<rect x="1.659" y="1.662" style="clip-path:url(#SVGID_00000049914909591663916900000008724128688364081565_);fill:url(#SVGID_00000072265805237573479200000005443957738537055405_);" width="2079.924" height="1806.168"/>
</g>
<g>
	<defs>
		<path id="SVGID_00000049215357640671908550000012230370112292396462_" d="M2081.583,1.662v1684.34
			c0,67.007-54.822,121.828-121.828,121.828H1.659v499.4l2154.615,608.841c80.019,22.611,163.987-24.356,186.6-104.377
			L3123.997,47.389c4.31-15.251,6.091-30.643,5.6-45.727H2081.583z"/>
	</defs>
	<clipPath id="SVGID_00000018226143162125365860000011696777134882128310_">
		<use xlink:href="#SVGID_00000049215357640671908550000012230370112292396462_"  style="overflow:visible;"/>
	</clipPath>
	
		<linearGradient id="SVGID_00000074408202565010240660000003060701622006517177_" gradientUnits="userSpaceOnUse" x1="8591.3555" y1="5513.8237" x2="927.6047" y2="1102.8051">
		<stop  offset="0" style="stop-color:#9C00FF"/>
		<stop  offset="1" style="stop-color:#01011F"/>
	</linearGradient>
	
		<rect x="1.659" y="1.662" style="clip-path:url(#SVGID_00000018226143162125365860000011696777134882128310_);fill:url(#SVGID_00000074408202565010240660000003060701622006517177_);" width="3128.428" height="2937.021"/>
</g>
<g>
	<defs>
		<path id="SVGID_00000106856807928159705820000001923173665751006355_" d="M3123.997,47.389l-532.902,1885.879l1250.479,353.354
			c80.019,22.61,163.988-24.357,186.6-104.377L4644.352,1.662H3129.597C3130.088,16.746,3128.307,32.138,3123.997,47.389"/>
	</defs>
	<clipPath id="SVGID_00000027572891199283833730000017402934141000384642_">
		<use xlink:href="#SVGID_00000106856807928159705820000001923173665751006355_"  style="overflow:visible;"/>
	</clipPath>
	
		<linearGradient id="SVGID_00000098220964468880977520000000833043185495030964_" gradientUnits="userSpaceOnUse" x1="8891.4678" y1="4353.0659" x2="3209.5093" y2="907.9356">
		<stop  offset="0" style="stop-color:#9C00FF"/>
		<stop  offset="1" style="stop-color:#01011F"/>
	</linearGradient>
	
		<rect x="2591.095" y="1.662" style="clip-path:url(#SVGID_00000027572891199283833730000017402934141000384642_);fill:url(#SVGID_00000098220964468880977520000000833043185495030964_);" width="2053.257" height="2307.57"/>
</g>
<g>
	<defs>
		<path id="SVGID_00000031171622676719786310000008373630100211152825_" d="M4644.352,1.662l-616.178,2180.583
			c-22.612,80.02-106.581,126.987-186.6,104.377l-1250.479-353.354l-197.82,700.063l2792.508,789.091
			c94.086,26.587,192.819-28.639,219.406-122.726L6323.645,49.391c4.493-15.9,6.65-31.933,6.677-47.728H4644.352z"/>
	</defs>
	<clipPath id="SVGID_00000168086530723568048960000000214068575818026917_">
		<use xlink:href="#SVGID_00000031171622676719786310000008373630100211152825_"  style="overflow:visible;"/>
	</clipPath>
	
		<linearGradient id="SVGID_00000174598179261984796610000002945060736607431610_" gradientUnits="userSpaceOnUse" x1="12986.6602" y1="8426.8037" x2="3695.625" y2="1207.723">
		<stop  offset="0" style="stop-color:#9C00FF"/>
		<stop  offset="1" style="stop-color:#01011F"/>
	</linearGradient>
	
		<rect x="2393.275" y="1.662" style="clip-path:url(#SVGID_00000168086530723568048960000000214068575818026917_);fill:url(#SVGID_00000174598179261984796610000002945060736607431610_);" width="3937.047" height="3447.347"/>
</g>
<g>
	<defs>
		<path id="SVGID_00000111890754214459097480000014308130158998900613_" d="M1425.441,3583.965l228.815-809.75L1.659,2307.231
			v1059.134l1204.376,340.327C1300.121,3733.279,1398.854,3678.052,1425.441,3583.965"/>
	</defs>
	<clipPath id="SVGID_00000034800636579555997250000004359515411546449574_">
		<use xlink:href="#SVGID_00000111890754214459097480000014308130158998900613_"  style="overflow:visible;"/>
	</clipPath>
	
		<linearGradient id="SVGID_00000023243193995951714720000010109421567069867186_" gradientUnits="userSpaceOnUse" x1="2825.1719" y1="7783.4434" x2="570.9791" y2="2407.3821">
		<stop  offset="0" style="stop-color:#9C00FF"/>
		<stop  offset="1" style="stop-color:#01011F"/>
	</linearGradient>
	
		<rect x="1.659" y="2307.231" style="clip-path:url(#SVGID_00000034800636579555997250000004359515411546449574_);fill:url(#SVGID_00000023243193995951714720000010109421567069867186_);" width="1652.597" height="1426.047"/>
</g>
</svg>
