<svg version="1.1" id="Icon_Set" xmlns="http://www.w3.org/2000/svg" x="0" y="0" viewBox="0 0 512 512" style="enable-background:new 0 0 512 512" xml:space="preserve"><style>.st0{fill:#4c4372}.st5{fill:#a4cff2}.st6{fill:#7babf1}</style><circle cx="256" cy="256" r="207" style="fill:#f0c48a"/><path d="M100.063 472.494H59.611V59.731c0-11.17 9.056-20.225 20.226-20.225s20.226 9.055 20.226 20.225v412.763z" style="fill:#fd919e"/><path d="M452.389 472.494h-40.451V59.731c0-11.17 9.055-20.225 20.226-20.225 11.17 0 20.226 9.055 20.226 20.225v412.763z" style="fill:#e8677d"/><path class="st0" d="M100.063 478.357H59.612a5.863 5.863 0 0 1-5.863-5.863V59.731c0-14.385 11.703-26.088 26.088-26.088 14.385 0 26.088 11.704 26.088 26.088v412.763a5.862 5.862 0 0 1-5.862 5.863zm-34.589-11.725H94.2v-406.9c0-7.92-6.443-14.363-14.363-14.363-7.919 0-14.363 6.443-14.363 14.363v406.9zM452.388 478.357h-40.451a5.863 5.863 0 0 1-5.863-5.863V59.731c0-14.385 11.704-26.088 26.089-26.088 14.385 0 26.088 11.704 26.088 26.088v412.763a5.863 5.863 0 0 1-5.863 5.863zM417.8 466.632h28.726v-406.9c0-7.92-6.443-14.363-14.363-14.363S417.8 51.812 417.8 59.732v406.9z"/><path d="M490.792 188.829H21.208c-8.475 0-15.345-6.87-15.345-15.345V90.709c0-8.475 6.87-15.345 15.345-15.345h469.585c8.475 0 15.345 6.871 15.345 15.345v82.774c-.001 8.475-6.871 15.346-15.346 15.346z" style="fill:#d3e6f8"/><path class="st5" d="M118.771 188.829H65.04L35.727 75.364h53.732zM237.939 188.829h-53.732L154.894 75.364h53.732zM357.106 188.829h-53.732L274.061 75.364h53.732zM476.273 188.829h-53.731L393.228 75.364h53.732zM490.792 390.982H21.208c-8.475 0-15.345-6.87-15.345-15.345v-82.775c0-8.475 6.87-15.345 15.345-15.345h469.585c8.475 0 15.345 6.87 15.345 15.345v82.775c-.001 8.475-6.871 15.345-15.346 15.345z"/><path class="st6" d="M118.771 390.982H65.04L35.727 277.518h53.732zM237.939 390.982h-53.732l-29.313-113.464h53.732zM357.106 390.982h-53.732l-29.313-113.464h53.732zM476.273 390.982h-53.731l-29.314-113.464h53.732z"/><path class="st0" d="M490.792 194.691H21.208C9.514 194.691 0 185.178 0 173.483V90.709c0-11.693 9.514-21.207 21.208-21.207h469.585c11.694 0 21.208 9.514 21.208 21.207v82.774c-.001 11.695-9.515 21.208-21.209 21.208zM21.208 81.227c-5.229 0-9.482 4.254-9.482 9.482v82.774c0 5.229 4.254 9.482 9.482 9.482h469.585c5.229 0 9.483-4.253 9.483-9.482V90.709c0-5.229-4.254-9.482-9.483-9.482H21.208zM490.792 396.845H21.208C9.514 396.845 0 387.331 0 375.638v-82.775c0-11.693 9.514-21.207 21.208-21.207h469.585c11.694 0 21.208 9.514 21.208 21.207v82.775c-.001 11.693-9.515 21.207-21.209 21.207zM21.208 283.38c-5.229 0-9.482 4.254-9.482 9.482v82.775c0 5.229 4.254 9.482 9.482 9.482h469.585c5.229 0 9.483-4.254 9.483-9.482v-82.775c0-5.229-4.254-9.482-9.483-9.482H21.208z"/><path class="st0" d="M118.791 194.691H65.04a5.864 5.864 0 0 1-5.676-4.396L30.051 76.831a5.862 5.862 0 0 1 5.676-7.329h53.732a5.862 5.862 0 0 1 5.676 4.396l29.192 112.995a5.864 5.864 0 0 1-5.536 7.798zM69.58 182.966h41.622L84.919 81.227H43.296L69.58 182.966zM237.958 194.691h-53.752a5.863 5.863 0 0 1-5.676-4.396L149.218 76.831a5.86 5.86 0 0 1 1.042-5.056 5.86 5.86 0 0 1 4.635-2.273h53.732a5.862 5.862 0 0 1 5.676 4.396l29.191 112.995a5.864 5.864 0 0 1-5.536 7.798zm-49.21-11.725h41.622L204.085 81.227h-41.621l26.284 101.739zM357.125 194.691h-53.751a5.865 5.865 0 0 1-5.677-4.396L268.384 76.831a5.862 5.862 0 0 1 5.676-7.329h53.732a5.864 5.864 0 0 1 5.677 4.396l29.19 112.995a5.861 5.861 0 0 1-5.534 7.798zm-49.211-11.725h41.622L323.253 81.227h-41.622l26.283 101.739zM476.292 194.691h-53.751a5.865 5.865 0 0 1-5.677-4.396L387.551 76.831a5.866 5.866 0 0 1 5.677-7.329h53.732a5.862 5.862 0 0 1 5.676 4.396l29.191 112.995a5.863 5.863 0 0 1-5.535 7.798zm-49.211-11.725h41.622L442.42 81.227h-41.622l26.283 101.739zM118.791 396.845H65.04a5.863 5.863 0 0 1-5.676-4.396L30.051 278.984a5.861 5.861 0 0 1 5.676-7.329h53.732a5.862 5.862 0 0 1 5.676 4.396l29.192 112.995a5.865 5.865 0 0 1-5.536 7.799zM69.58 385.12h41.622L84.919 283.38H43.296L69.58 385.12zM237.958 396.845h-53.752a5.862 5.862 0 0 1-5.676-4.396l-29.314-113.465a5.858 5.858 0 0 1 1.042-5.056 5.86 5.86 0 0 1 4.635-2.273h53.732a5.862 5.862 0 0 1 5.676 4.396l29.191 112.995a5.862 5.862 0 0 1-5.534 7.799zm-49.21-11.725h41.622l-26.284-101.74h-41.621l26.283 101.74z"/><g><path class="st0" d="M357.125 396.845h-53.751a5.864 5.864 0 0 1-5.677-4.396l-29.313-113.465a5.862 5.862 0 0 1 5.676-7.329h53.732a5.864 5.864 0 0 1 5.677 4.396l29.19 112.995a5.862 5.862 0 0 1-5.534 7.799zm-49.211-11.725h41.622l-26.283-101.74h-41.622l26.283 101.74z"/></g><g><path class="st0" d="M476.292 396.845h-53.751a5.864 5.864 0 0 1-5.677-4.396l-29.313-113.465a5.865 5.865 0 0 1 5.677-7.329h53.732a5.862 5.862 0 0 1 5.676 4.396l29.191 112.995a5.863 5.863 0 0 1-5.535 7.799zm-49.211-11.725h41.622L442.42 283.38h-41.622l26.283 101.74z"/></g></svg>
